:SAMPLES-PER-SECOND 30
:FULLY-SPECIFIED
:DEGREES
485
root  20.933 37.3931 -6.73304 6.57416 85.3613 12.0745
RightUpLeg  -21.7913 -9.52043 -1.25793
RightLeg  18.3335 1.98486 0.573501
RightFoot  7.00804 0.23317 -1.18081
RightToes  -1.33073e-015 0 -3.6325e-017
Spine  13.8608 -3.65467 1.96672
Spine1  4.77001 -4.17052 2.50346
HEad  -1.58438 2.45602 -4.00371
LeftShoulder1  0.231563 2.87536 -30.7368
LeftArm  4.23702 2.89073 -42.7101
LeftForeArm  16.3695 -27.064 -4.93912
LeftHand  -0.167994 1.39418 4.71952
RightShoulder  -0.457762 -4.89064 26.1338
RightArm  12.6961 -11.8021 43.7249
RightForeArm  5.82311 11.3299 6.10496
RightHand  -0.757063 7.62271 -7.10481
LeftUpLeg  19.8739 3.52007 0.729281
LeftLeg  19.3925 -1.08497 -0.0818002
LeftFoot  -22.6503 -0.24905 -3.87872
LeftToes  -1.03319e-009 7.52634e-011 -3.26162e-012
486
root  22.3052 37.2547 -6.39083 -11.5237 85.2144 -6.08612
RightUpLeg  -22.3075 -9.58232 0.500098
RightLeg  23.6535 2.11183 0.778391
RightFoot  4.22528 0.482415 -3.30525
RightToes  -1.33073e-015 0 -3.6325e-017
Spine  13.8424 -3.88171 5.21254
Spine1  5.18162 -3.72933 1.95037
HEad  -1.7907 2.67224 -3.84806
LeftShoulder1  0.28086 2.74065 -30.6902
LeftArm  6.09619 3.40968 -43.2924
LeftForeArm  16.0819 -24.4395 -4.41334
LeftHand  -0.133383 1.57668 3.89274
RightShoulder  -0.450829 -4.86156 26.2907
RightArm  11.1678 -10.7584 43.6345
RightForeArm  4.86569 9.97212 6.00976
RightHand  -0.814631 8.55396 -7.15509
LeftUpLeg  17.9753 2.93824 2.91169
LeftLeg  27.2438 -1.81276 -0.718456
LeftFoot  -20.1783 -0.564293 -9.22638
LeftToes  -1.03319e-009 7.52634e-011 -3.26162e-012
487
root  23.5423 37.2048 -6.00258 -23.2555 85.604 -18.3845
RightUpLeg  -22.3991 -10.38 1.62122
RightLeg  27.103 1.97096 0.860179
RightFoot  0.742777 0.426829 -3.97014
RightToes  -1.33073e-015 0 -3.6325e-017
Spine  13.8508 -4.1018 6.45171
Spine1  5.09933 -3.82151 3.18029
HEad  -0.732815 2.73175 -4.3099
LeftShoulder1  0.240997 2.84453 -30.4608
LeftArm  8.36845 4.01511 -43.8964
LeftForeArm  15.0319 -21.4468 -4.50282
LeftHand  -0.124315 2.00981 3.86094
RightShoulder  -0.348397 -4.57105 25.5989
RightArm  9.96188 -10.2352 44.4168
RightForeArm  4.712 9.90717 5.70882
RightHand  -0.767488 6.97373 -7.52699
LeftUpLeg  12.8977 2.74198 5.02759
LeftLeg  37.8085 -2.48157 -1.64813
LeftFoot  -12.2349 -0.0572616 -12.8062
LeftToes  -1.03319e-009 7.52634e-011 -3.26162e-012
488
root  24.7421 37.2683 -5.60712 -40.0196 85.9609 -35.3317
RightUpLeg  -21.0923 -10.8717 2.66519
RightLeg  28.7156 1.38417 0.573383
RightFoot  -2.07618 0.333203 -4.27625
RightToes  -1.33073e-015 0 -3.6325e-017
Spine  13.9818 -4.25398 8.07482
Spine1  4.99923 -3.62611 3.30701
HEad  -0.0263535 2.01523 -3.75301
LeftShoulder1  0.292307 2.69641 -30.0856
LeftArm  7.83963 4.30697 -44.1734
LeftForeArm  17.9906 -18.7494 -5.5551
LeftHand  -0.0593269 2.75398 2.08562
RightShoulder  -0.35688 -4.60145 25.4684
RightArm  10.7498 -9.38511 44.7322
RightForeArm  3.14156 10.8907 5.83647
RightHand  -0.857834 8.08509 -7.73826
LeftUpLeg  6.5661 1.71285 6.48923
LeftLeg  48.7207 -1.15618 -0.943237
LeftFoot  0.40428 0.960775 -9.81543
LeftToes  -1.03319e-009 7.52634e-011 -3.26162e-012
489
root  25.8887 37.3285 -5.2624 -57.206 85.9897 -52.3126
RightUpLeg  -19.2357 -10.7675 3.51148
RightLeg  29.8251 0.36001 -0.0249224
RightFoot  -4.50154 0.227686 -4.30573
RightToes  -1.33073e-015 0 -3.6325e-017
Spine  14.3603 -4.46758 9.67621
Spine1  5.13168 -3.41492 3.11389
HEad  0.391045 1.77514 -3.5147
LeftShoulder1  0.322106 2.61613 -30.1748
LeftArm  6.47784 4.89802 -43.9377
LeftForeArm  20.8554 -17.2049 -6.29221
LeftHand  -0.0620589 2.67232 2.07579
RightShoulder  -0.381446 -4.6719 25.6599
RightArm  12.9138 -8.32163 44.5049
RightForeArm  1.55977 13.757 5.71912
RightHand  -0.858399 8.06259 -7.75553
LeftUpLeg  0.887108 0.700734 7.38562
LeftLeg  57.2882 -0.103 0.302327
LeftFoot  6.67636 0.737666 -4.67498
LeftToes  -1.03319e-009 7.52634e-011 -3.26162e-012
